<svg width="312" height="200" xmlns="http://www.w3.org/2000/svg">

 <g>
  <title>Layer 1</title>
  <path d="m72.5,198.5c4.27,-5.97 12.56,-13.56 18,-19c0,0 32,-32 32,-32c0,0 100,-100 100,-100c0,0 34,-34 34,-34c7.72,-7.72 9.78,-12.98 21,-13c0,0 34,0 34,0c0,0 0,199 0,199c0,0 -163,0 -163,0c0,0 -50,0 -50,0c0,0 -26,-1 -26,-1zm-35,1c1.66,-5.06 7.24,-9.24001 11,-13c0,0 23,-23 23,-23c0,0 41.01,-42 41.01,-42c0,0 29.57,-29.28 29.57,-29.28c0,0 20.42,-20.72 20.42,-20.72c2.84,-2.84 7.34,-7.87 11,-9.26c3.05,-1.17 14.11,-0.74 18,-0.74c0,0 -12,14 -12,14c0,0 -22,22 -22,22c0,0 -72,72 -72,72c0,0 -20,20 -20,20c0,0 -10.28,9.42999 -10.28,9.42999c0,0 -17.72,0.57001 -17.72,0.57001zm-37,0c1.43,-3.84 4.04,-5.14999 7,-8.02c0,0 16,-15.98 16,-15.98c0,0 37,-37 37,-37c6.76,-6.75999 10.02,-12.92999 20,-13c0,0 12,0 12,0c-3,6.35001 -12.74,14.74001 -18,20c0,0 -38,38 -38,38c-2.8,2.8 -13.62,14.32001 -16.28,15.42999c-1.72,0.71001 -4.83,0.57001 -6.72,0.57001c0,0 -13,0 -13,0z" stroke="black" fill="red" id="Selección"/>
 </g>
</svg>